<?xml version="1.0" encoding="utf-8" ?>
<svg baseProfile="full" height="112" version="1.1" width="115" xmlns="http://www.w3.org/2000/svg" xmlns:ev="http://www.w3.org/2001/xml-events" xmlns:xlink="http://www.w3.org/1999/xlink"><defs /><path d="M 67,8 L 66,9 L 17,9 L 15,11 L 14,11 L 13,12 L 13,13 L 12,14 L 12,70 L 13,71 L 13,72 L 15,74 L 16,74 L 17,75 L 27,75 L 28,76 L 44,76 L 45,77 L 45,83 L 44,84 L 43,84 L 42,83 L 41,84 L 39,84 L 38,83 L 35,83 L 34,84 L 24,84 L 23,85 L 22,85 L 19,88 L 19,90 L 18,91 L 18,94 L 95,94 L 95,90 L 94,89 L 94,88 L 91,85 L 90,85 L 89,84 L 87,84 L 86,83 L 82,83 L 81,84 L 69,84 L 68,83 L 68,77 L 69,76 L 93,76 L 94,75 L 96,75 L 97,74 L 98,74 L 100,72 L 100,71 L 101,70 L 101,14 L 100,13 L 100,12 L 98,10 L 97,10 L 96,9 L 81,9 L 80,8 L 78,8 L 77,9 L 74,9 L 73,8 L 72,9 L 69,9 L 68,8 Z" fill="none" stroke="gold" stroke-width="2" /></svg>